# xmcd
#
# Track frame offsets: 
#        150
#        20665
#        44505
#        57120
#        74675
#        90605
#        103002
#        119617
#        141120
#
# Disc length: 2057 seconds
#
# Revision: 4
# Processed by: cddbd v1.5.2PL0 Copyright (c) Steve Scherf et al.
# Submitted via: ExactAudioCopy v0.95b4
#
DISCID=84080709
DTITLE=Johnny Winter - Johnny Winter
DYEAR=1969
DGENRE=Texas Blues
TTITLE0=I'm Yours and I'm Hers
TTITLE1=Be Careful with a Fool
TTITLE2=Dallas
TTITLE3=Mean Mistreater
TTITLE4=Leland Mississippi Blues
TTITLE5=Good Morning Little School Girl
TTITLE6=When You Got a Good Friend
TTITLE7=I'll Drown in My Tears
TTITLE8=Back Door Friend
EXTD=Johnny Winter: guitar, slide guitar, harmonica, vocals\nTommy Sha
EXTD=nnon: bass guitar\n"Uncle" John "Red" Turner: percussion\nWalter 
EXTD="Shakey" Horton (4): harmonica\nWillie Dixon (track 4): double ba
EXTD=ss\nKarl Garin (6,8): trumpet\nEdgar Winter: alto sax (6), piano 
EXTD=(8]\nA. Wynn Butler (6,8): tenor sax\nStephen Ralph Sefsik (8): a
EXTD=lto sax\nNorman Ray (8): baritone sax\nBacking vocals (8): Carrie
EXTD=Hossell, Peggy Bowers, Elsie Senter\nProduced by Johnny Winter.\n
EXTD=Recorded in Nashville US-TN, 1969-02, and San Francisco US-CA, 19
EXTD=69-03-05.\nOriginally released as CBS LP 63619 (1969-06).\nCD: Co
EXTD=lumbia CK 9826 (1990-03-20), UPC 074640982620.\nAlso packaged in 
EXTD=the "Johnny Winter/Second Winter/Captured Live!" 3-pak, Columbia 
EXTD=C3K 65399 (1997-08-12), UPC 074646539927.
EXTT0=(Johnny Winter)
EXTT1=(Joe Josea/B.B. King)
EXTT2=(Johnny Winter)
EXTT3=(James Gordon)
EXTT4=(Johnny Winter)
EXTT5=(Sonny Boy Williamson [I])
EXTT6=(Robert Johnson)
EXTT7=(Henry Glover)
EXTT8=(Lightnin' Hopkins/Stan Lewis)
PLAYORDER=
